$MeshFormat
4.1 0 8
$EndMeshFormat
$PhysicalNames
5
1 1 "Outlet"
1 2 "Inlet"
1 3 "NoFlux"
1 4 "InnerBoundary"
2 5 "Domain"
$EndPhysicalNames
$Entities
5 5 1 0
1 0 0 0 0 
2 32 0 0 0 
3 32 16 0 0 
4 0 16 0 0 
5 7.535533905932739 11.53553390593274 0 0 
1 -1.000000011686097e-07 -1e-07 -1e-07 32.0000001 1e-07 1e-07 1 3 2 1 -2 
2 31.9999999 -9.99999993922529e-08 -1e-07 32.0000001 16.0000001 1e-07 1 1 2 2 -3 
3 -1.000000011686097e-07 15.9999999 -1e-07 32.0000001 16.0000001 1e-07 1 3 2 3 -4 
4 -1e-07 -9.99999993922529e-08 -1e-07 1e-07 16.0000001 1e-07 1 2 2 4 -1 
5 6.037857609704096 10.03785760970409 -1e-07 7.618996639788286 11.61899663978828 1e-07 1 4 2 5 -5 
1 -1.000000011686097e-07 -9.99999993922529e-08 -1e-07 32.0000001 16.0000001 1e-07 1 5 5 1 2 3 4 -5 
$EndEntities
$Nodes
11 408 1 408
0 1 0 1
1
0 0 0
0 2 0 1
2
32 0 0
0 3 0 1
3
32 16 0
0 4 0 1
4
0 16 0
0 5 0 1
5
7.535533905932739 11.53553390593274 0
1 1 0 13
6
7
8
9
10
11
12
13
14
15
16
17
18
2.285714285714282 0 0
4.571428571428563 0 0
6.857142857142848 0 0
9.142857142857133 0 0
11.42857142857141 0 0
13.71428571428569 0 0
15.99999999999996 0 0
18.28571428571424 0 0
20.57142857142853 0 0
22.85714285714282 0 0
25.14285714285711 0 0
27.42857142857141 0 0
29.7142857142857 0 0
1 2 0 6
19
20
21
22
23
24
32 2.285714285714282 0
32 4.571428571428567 0
32 6.857142857142843 0
32 9.142857142857119 0
32 11.42857142857141 0
32 13.7142857142857 0
1 3 0 13
25
26
27
28
29
30
31
32
33
34
35
36
37
29.71428571428572 16 0
27.42857142857144 16 0
25.14285714285715 16 0
22.85714285714287 16 0
20.57142857142859 16 0
18.28571428571431 16 0
16.00000000000004 16 0
13.71428571428576 16 0
11.42857142857147 16 0
9.142857142857178 16 0
6.857142857142886 16 0
4.571428571428591 16 0
2.285714285714295 16 0
1 4 0 6
38
39
40
41
42
43
0 13.71428571428572 0
0 11.42857142857143 0
0 9.142857142857157 0
0 6.857142857142881 0
0 4.571428571428589 0
0 2.285714285714295 0
1 5 0 40
44
45
46
47
48
49
50
51
52
53
54
55
56
57
58
59
60
61
62
63
64
65
66
67
68
69
70
71
72
73
74
75
76
77
78
79
80
81
82
83
7.436114461465046 11.59758656298786 0
7.320343977993986 11.61868469783245 0
7.20271078472862 11.61008215700109 0
7.088143770103115 11.58160981266547 0
6.977936644677007 11.53917552300574 0
6.872341438590241 11.48625475557529 0
6.77134929906777 11.42498543721568 0
6.674924230016646 11.35674427159768 0
6.583080345588407 11.28244711139771 0
6.495913719271166 11.20271198357379 0
6.413624791561354 11.11795168283169 0
6.336545840133081 11.02842843101092 0
6.265183590864536 10.93428760845315 0
6.200290042160412 10.83558137802694 0
6.142984679316264 10.7322932785007 0
6.094974497374444 10.62438570694053 0
6.05896837338469 10.51193199367731 0
6.039478888707002 10.39554071941202 0
6.044225796941715 10.27779329803339 0
6.084788979712008 10.16757826948647 0
6.167578269486461 10.08478897971201 0
6.277793298033376 10.04422579694172 0
6.395540719412005 10.039478888707 0
6.511931993677295 10.05896837338469 0
6.624385706940518 10.09497449737444 0
6.73229327850069 10.14298467931626 0
6.83558137802693 10.2002900421604 0
6.934287608453137 10.26518359086453 0
7.028428431010915 10.33654584013307 0
7.117951682831682 10.41362479156134 0
7.20271198357378 10.49591371927115 0
7.282447111397701 10.58308034558839 0
7.356744271597671 10.67492423001663 0
7.42498543721567 10.77134929906775 0
7.486254755575282 10.87234143859022 0
7.539175523005732 10.97793664467699 0
7.581609812665469 11.0881437701031 0
7.610082157001095 11.20271078472861 0
7.618684697832451 11.32034397799398 0
7.597586562987866 11.43611446146505 0
2 1 0 325
84
85
86
87
88
89
90
91
92
93
94
95
96
97
98
99
100
101
102
103
104
105
106
107
108
109
110
111
112
113
114
115
116
117
118
119
120
121
122
123
124
125
126
127
128
129
130
131
132
133
134
135
136
137
138
139
140
141
142
143
144
145
146
147
148
149
150
151
152
153
154
155
156
157
158
159
160
161
162
163
164
165
166
167
168
169
170
171
172
173
174
175
176
177
178
179
180
181
182
183
184
185
186
187
188
189
190
191
192
193
194
195
196
197
198
199
200
201
202
203
204
205
206
207
208
209
210
211
212
213
214
215
216
217
218
219
220
221
222
223
224
225
226
227
228
229
230
231
232
233
234
235
236
237
238
239
240
241
242
243
244
245
246
247
248
249
250
251
252
253
254
255
256
257
258
259
260
261
262
263
264
265
266
267
268
269
270
271
272
273
274
275
276
277
278
279
280
281
282
283
284
285
286
287
288
289
290
291
292
293
294
295
296
297
298
299
300
301
302
303
304
305
306
307
308
309
310
311
312
313
314
315
316
317
318
319
320
321
322
323
324
325
326
327
328
329
330
331
332
333
334
335
336
337
338
339
340
341
342
343
344
345
346
347
348
349
350
351
352
353
354
355
356
357
358
359
360
361
362
363
364
365
366
367
368
369
370
371
372
373
374
375
376
377
378
379
380
381
382
383
384
385
386
387
388
389
390
391
392
393
394
395
396
397
398
399
400
401
402
403
404
405
406
407
408
15.1089755975567 1.969634133688302 0
6.23417565816143 11.04638869370906 0
10.13748076416406 1.888148450474224 0
19.36889885677786 14.15565479004723 0
23.91675609437505 1.988154626937513 0
5.449123872006977 2.042757694687886 0
12.44984595957055 14.19090626937173 0
6.564659885525852 11.39913380766027 0
19.40028650790907 1.922619081078432 0
30.01232692738489 7.737150852690776 0
24.00546009263035 14.12362197954564 0
1.89574447995378 8.08387367637361 0
1.512716864161279 12.7862438241567 0
5.584394068768821 14.08905186035254 0
6.991763283336196 11.65561586934263 0
28.43790771175409 2.232997535572216 0
30.0618070721822 12.57889231665168 0
1.946216252396276 3.571280723714902 0
1.386292228212561 10.25874130785895 0
3.31360193411837 11.45395899077674 0
3.95579951150091 14.18899084180233 0
4.415217177890474 12.75511547997353 0
6.073003272428462 12.62467182993811 0
7.59116422813617 14.49299919101484 0
9.893732408951449 14.02087871982297 0
8.555858352170556 12.85805932374574 0
7.402013496641006 11.7178904902119 0
7.663339477059196 11.54364131605058 0
1.930218617645373 5.349020771561671 0
3.829857254944368 6.912916433919184 0
3.530903632498539 4.322989454579349 0
6.597924379955243 9.97267154696846 0
8.270833336830892 1.868383933317314 0
9.140391678344251 3.709960952015886 0
10.87473914304667 3.622515868384763 0
10.10961974154682 5.014174827642476 0
11.53239610276425 5.038144180617198 0
7.655817718979195 10.99629762613347 0
10.69233418966405 6.269974722881267 0
7.399133807660256 10.56465988552583 0
7.142281472630833 10.2930936957963 0
12.13614461642668 6.34040028901657 0
11.30049098001366 7.533110769759969 0
9.35444580081839 6.118691270897951 0
12.76949270689461 7.617924741680611 0
6.940963455410401 10.13866871655284 0
11.93748768865525 8.760395565202579 0
13.44605031716503 8.874234413778442 0
14.34605034137973 7.631516684252758 0
10.64352067022643 8.77633555141872 0
11.14875866423861 9.85336910515255 0
15.1399090509401 9.074556886253603 0
16.07543275773212 7.518269262354101 0
10.03721473039409 9.67418023077961 0
9.571762884595056 8.845602096454652 0
9.012148814998579 9.618525687820298 0
8.718976958447485 8.881114408165889 0
9.447703144409095 10.33929138590538 0
8.317325217856871 9.417407957935954 0
8.050512037445117 8.865816374282675 0
8.355554513073391 8.271404369550993 0
7.57573247880573 8.354376335609775 0
16.89401916159323 9.199720185504354 0
17.96187197890645 7.674056702366352 0
7.771558658383272 9.455964620733091 0
7.99958193334392 9.894917890578705 0
15.63501353116307 10.54375581467399 0
18.86698288486116 9.359982348788854 0
20.01401682440872 7.659995550822759 0
7.968463912770797 7.620881094180771 0
7.137333461546659 7.589763499469036 0
6.844933655743953 8.40742246695849 0
7.521970182719546 6.836833942051187 0
6.339118148245211 7.786692143694907 0
5.855511801564798 8.525844439066192 0
6.18533277542487 9.964058955635146 0
20.99794197256928 9.553225760990038 0
22.12582785112981 7.784036179931289 0
17.06983163831931 5.742229189733266 0
6.391068015788523 9.055273886255252 0
7.451215702163035 9.766680955249248 0
23.12416967290657 9.710999747188044 0
24.3182049685278 7.880820182702938 0
25.32761448259208 9.839539442886906 0
13.04584355509598 5.127153131160703 0
7.689382966602341 10.12627190395971 0
7.319965497307185 9.411599823978925 0
5.518525768764423 7.848468515597883 0
5.128913967093375 8.638104518281908 0
5.710806945021471 6.886779964880166 0
21.23413364892871 5.834222762869487 0
9.911233807058101 7.887581259396519 0
7.135622571105444 9.79296593391992 0
26.45862795468246 8.015159385935041 0
25.54880225027856 6.03800113096044 0
27.44761897443688 10.01268108884154 0
8.733427489475105 10.2194019140646 0
8.91153946240679 10.8553286751039 0
9.739652688469858 11.04696879661147 0
8.287056769241367 10.86032278187203 0
7.733741849009018 11.24475133271566 0
8.451035396315476 11.22013659747216 0
21.95178877192119 11.30844725839174 0
6.951958668427874 9.504297169328121 0
11.99684046253177 1.967765779560113 0
26.2163039816096 11.77885695695397 0
27.93442555361596 6.336022656955341 0
7.529303853281743 3.51898592250738 0
7.293040961641765 10.0386798479503 0
8.050005223670212 4.819950433533625 0
6.711936319301627 4.818705669805951 0
8.104866636818601 11.22094746140387 0
8.266628588358952 11.5667715238499 0
8.715440459735662 11.62471349803887 0
7.946538453892838 10.79923111251346 0
7.543078114992758 10.76878685150404 0
8.07735315562728 10.52773581778714 0
7.780296255948963 10.5717348080364 0
8.781651997743078 7.588455289801704 0
4.552273237270182 7.886172179225697 0
4.204157048348973 8.77738577086447 0
5.932783865685071 10.33433879071496 0
5.969321108923536 10.58610823024637 0
4.853672341908732 9.367966156480026 0
3.98403668771024 9.716047404851686 0
4.393140370530986 10.51157229704744 0
5.226913659547108 10.26653064511179 0
7.72355141599035 11.39362762812769 0
5.590708676835307 9.258220106490196 0
6.752006146736127 9.733216697663664 0
26.72191555273053 4.080660114682306 0
7.131938525398523 9.130104618395785 0
7.835985327880197 11.52498027725673 0
7.74495396258242 11.7162833370959 0
14.70567547847372 14.18277685258632 0
13.66394940220097 12.59595820812234 0
11.76113540866528 12.4290691557865 0
13.00531516129988 11.31837370980941 0
16.94354344157957 14.07608462257578 0
18.29514508309682 12.59493355363738 0
17.19188152258744 1.913328294404193 0
16.1536997870797 3.769043231533173 0
18.21418531101218 3.814655711742102 0
14.91637544632502 5.704421244277963 0
6.61402597074397 9.485234820392 0
6.467239383281607 9.940178756495287 0
6.572821576817748 9.828937946142451 0
6.405197260988054 9.794269151732598 0
3.755822087486649 2.616131311903835 0
7.707119956518218 11.11324494429982 0
7.882286767269841 11.33059060954057 0
6.716403545274181 10.01614695006188 0
8.331575975823563 12.07425890175564 0
21.65829249968634 1.947158939699862 0
22.54108852740299 3.965062266537011 0
7.550866762230591 11.65561523267871 0
7.523245269703132 11.82275578379329 0
7.299120160736798 11.89802182787733 0
7.484876147459797 12.08404245645684 0
7.166971041500604 12.23070216307507 0
7.510966173550173 12.4386930798281 0
7.033512124185053 12.6935542629421 0
6.675627314208054 12.31155726551569 0
3.055649548268331 8.953871794266739 0
21.71869267650626 14.17272180330811 0
7.815203419864808 10.98597825256101 0
7.71783719783301 10.81846218367704 0
20.35287912624304 3.861225055565436 0
29.72344653554287 10.14182999752006 0
30.08914641178441 5.579200473288006 0
7.481827936578807 10.65924582219726 0
7.558464734764925 10.53225073343679 0
7.41019467893104 10.39099784179769 0
7.043158463740982 10.21933779204739 0
7.084442200899488 10.05812174422845 0
6.940617057204836 9.981285934889815 0
7.241268002802617 10.38167369173608 0
7.285449479216236 10.24841965865724 0
24.1218248416126 11.62060556120962 0
6.830677696812867 10.06681489613792 0
7.468326135546338 10.19199126652662 0
7.626041839067637 10.34150174563554 0
19.14115308796973 5.764397495516567 0
26.31088057454778 14.00797691370657 0
26.06703633750537 2.0789047207655 0
6.988172331346512 11.97037169520809 0
6.65107899274027 11.85907429262583 0
6.790085991457724 11.53463111055558 0
6.23120975150036 12.06771308052481 0
5.606344739999271 12.12420611572842 0
5.731728506941927 11.52976657254756 0
5.255454842842328 11.53350831286449 0
6.399332149518024 11.2325108986414 0
5.479636998664368 11.15559131943206 0
6.095111478442083 10.8394598499274 0
6.314537039951819 11.67176763487737 0
4.8822575832416 11.09234558976247 0
5.864434763371484 11.17588154881776 0
14.17514335186336 3.811030349860306 0
23.42037789016865 5.945626428400354 0
6.084610131412791 3.561256640234054 0
5.09872744307453 4.891393521866633 0
10.40881652704942 10.63615959958967 0
10.44875412787246 11.66254186370893 0
28.62067037091904 14.10455241188806 0
30.18581579452783 3.484939332834823 0
4.621233413438709 11.79623142660862 0
8.880288784142888 12.25038683237312 0
5.720749335095473 10.8718573540651 0
5.361742972984963 10.67625981147068 0
6.664039567493738 11.47436945539822 0
6.140225033554938 10.9457555565826 0
6.017228460256039 10.72866131497618 0
11.09470807923424 13.63192510867324 0
6.879099504486213 11.61033799621441 0
9.304569041180606 12.9189137099979 0
6.069999400951588 11.45687577985262 0
3.720934512248345 10.53135603855616 0
7.66423771859235 13.17280673396843 0
6.734525588435901 13.5749924851006 0
6.291911536737999 11.14480215265819 0
6.901307214998489 11.7614946888173 0
7.112393891673952 11.75569740090551 0
6.473550397589309 11.29916497613624 0
5.674833008766594 10.56896208923762 0
5.54306040968444 10.24479738058555 0
5.332076309935692 9.841247070557545 0
5.804360427998782 9.877001807062998 0
6.054532234168031 9.541645434875946 0
6.326810004709122 9.931004453040016 0
6.21955617305829 9.77920217726701 0
7.892080826590025 10.2746460291784 0
8.179828808949997 10.18571400907289 0
7.620619454066006 10.66328716857257 0
15.59268666302758 12.4711650576543 0
19.68781810094432 11.05976645871981 0
6.015290556275662 5.810630008440141 0
4.896825226955244 6.23105354813332 0
3.298256963229766 7.906609972218932 0
7.517587276476554 8.967414655460292 0
6.336259394199573 11.37279893414866 0
1.941376636320534 14.28420530242717 0
7.222547351229059 5.784091868884976 0
9.491776242842 11.87419243445566 0
12.51691938004504 3.668647557945569 0
14.03556434565811 10.1982569488456 0
9.067836032183422 8.294831484673951 0
9.568929556356373 7.041492216931186 0
24.70266277541019 4.016068214713854 0
7.310270110548014 10.47960215826746 0
5.976627580489072 10.94904928169115 0
6.049376159108279 9.844281240819452 0
6.039425580477616 10.01368443074389 0
5.94511687113528 10.14439733174728 0
13.4427813332244 6.484283218077721 0
6.34828284346896 9.598549139805417 0
3.093187854799343 12.80837997237588 0
11.51536776563083 10.96569065171593 0
7.993754373203423 11.7199750343163 0
7.818501925903568 12.0348902575534 0
8.009628338698963 12.4749757641635 0
6.548993729828203 11.57675573699988 0
7.588432662077196 10.88676494891635 0
28.06345458487306 12.10413161426031 0
7.263536299364452 11.71895097561408 0
8.59874874709384 6.851800563158969 0
8.305652944674394 5.946487241791592 0
8.452645012835426 9.868915898385819 0
1.820034224951694 9.272024371233655 0
6.741691222247923 9.104956682011832 0
5.854149007273524 10.48299007660069 0
4.138978892368721 11.13226534772151 0
6.657844440839604 6.782465237903402 0
6.137012289516589 11.17866971984043 0
10.44218913608573 12.76049366535547 0
10.46302778328885 7.15086620359106 0
6.267731062782474 14.8314087072936 0
2.275211913157406 1.727023255389597 0
8.673630126736356 13.90247310425772 0
7.166968545618966 10.17209309262424 0
28.67384220488256 4.342764022666539 0
5.857968890111323 10.7016188884829 0
6.029532113982073 9.072855830059844 0
5.041859546625972 7.184380129167664 0
6.691754518271658 9.888643261052795 0
7.524302090746891 10.00474767248929 0
5.77911265895704 10.23408122901868 0
28.29573093407358 8.392461375496424 0
2.781482697706567 10.15256327219816 0
9.038150727461998 5.193217399239916 0
30.32674101127113 14.32674101127113 0
30.32674101127112 1.673258988728872 0
3.589732064285171 5.755468951454008 0
17.43933068058343 10.72632915366223 0
5.291183929306731 13.18275944879464 0
4.71047355180702 3.678224245725159 0
6.525802620901981 12.90385928169388 0
4.929484144428987 10.51367815129551 0
7.85821855711605 11.14584133185292 0
13.50243290125651 2.283415564210858 0
12.45894857545596 9.966361135416788 0
2.423968230009745 6.810838777111714 0
7.703046515570222 9.874401235618457 0
7.162178242783517 8.767805453377175 0
20.65841591319551 12.68197848783542 0
6.041781895968379 13.27506698117595 0
6.533188321083319 9.670892318259192 0
3.81007334374836 12.161888980133 0
2.014546929833021 11.48140979932298 0
5.970940248794763 10.46218196213027 0
8.411692930819749 10.47817839788095 0
10.68435471769898 14.89735116092807 0
22.92815198992661 12.80034706290822 0
6.377031571811973 9.328716429767562 0
8.016704338706202 11.47265298127347 0
8.002376767386732 11.00246418804066 0
6.908330621309908 2.253908802503732 0
6.006979325016314 11.78037506153999 0
4.783366135840277 10.02168241308516 0
6.739100833500775 11.63611054676854 0
6.818207466460148 9.921513053846324 0
6.928187114841977 9.796486494347471 0
6.385319750232657 8.64555570818402 0
25.04190149095435 12.90517374642018 0
14.52421952910323 11.45414934920325 0
$EndNodes
$Elements
6 816 1 816
1 1 1 14
1 1 6 
2 6 7 
3 7 8 
4 8 9 
5 9 10 
6 10 11 
7 11 12 
8 12 13 
9 13 14 
10 14 15 
11 15 16 
12 16 17 
13 17 18 
14 18 2 
1 2 1 7
15 2 19 
16 19 20 
17 20 21 
18 21 22 
19 22 23 
20 23 24 
21 24 3 
1 3 1 14
22 3 25 
23 25 26 
24 26 27 
25 27 28 
26 28 29 
27 29 30 
28 30 31 
29 31 32 
30 32 33 
31 33 34 
32 34 35 
33 35 36 
34 36 37 
35 37 4 
1 4 1 7
36 4 38 
37 38 39 
38 39 40 
39 40 41 
40 41 42 
41 42 43 
42 43 1 
1 5 1 41
43 5 44 
44 44 45 
45 45 46 
46 46 47 
47 47 48 
48 48 49 
49 49 50 
50 50 51 
51 51 52 
52 52 53 
53 53 54 
54 54 55 
55 55 56 
56 56 57 
57 57 58 
58 58 59 
59 59 60 
60 60 61 
61 61 62 
62 62 63 
63 63 64 
64 64 65 
65 65 66 
66 66 67 
67 67 68 
68 68 69 
69 69 70 
70 70 71 
71 71 72 
72 72 73 
73 73 74 
74 74 75 
75 75 76 
76 76 77 
77 77 78 
78 78 79 
79 79 80 
80 80 81 
81 81 82 
82 82 83 
83 83 5 
2 1 2 733
84 91 324 307 
85 113 367 203 
86 212 312 311 
87 142 149 148 
88 192 258 176 
89 277 281 274 
90 271 403 294 
91 11 383 188 
92 164 192 176 
93 139 142 140 
94 137 139 138 
95 181 327 197 
96 132 227 136 
97 107 362 34 
98 46 306 47 
99 163 406 353 
100 225 226 162 
101 150 377 318 
102 212 311 310 
103 141 180 139 
104 260 261 256 
105 318 377 223 
106 258 259 176 
107 172 212 207 
108 232 361 7 
109 137 138 133 
110 89 232 7 
111 149 315 169 
112 11 188 10 
113 293 309 308 
114 189 347 267 
115 158 366 212 
116 267 347 288 
117 149 386 148 
118 104 378 97 
119 148 386 164 
120 270 305 269 
121 183 394 181 
122 157 356 154 
123 312 335 311 
124 222 318 223 
125 276 324 304 
126 133 175 126 
127 139 140 138 
128 212 310 207 
129 86 117 116 
130 308 370 354 
131 302 344 109 
132 190 253 93 
133 36 104 97 
134 103 392 372 
135 134 137 133 
136 164 176 170 
137 246 269 243 
138 122 127 119 
139 198 250 201 
140 162 227 225 
141 337 370 311 
142 93 371 190 
143 105 378 104 
144 1 361 43 
145 185 195 183 
146 117 193 191 
147 109 362 302 
148 137 141 139 
149 136 227 162 
150 183 399 198 
151 300 324 279 
152 321 367 113 
153 39 392 96 
154 203 322 113 
155 142 148 143 
156 353 387 215 
157 101 114 112 
158 103 391 340 
159 132 338 227 
160 41 95 40 
161 122 331 127 
162 118 119 117 
163 340 392 103 
164 39 96 38 
165 90 220 219 
166 41 385 95 
167 105 290 273 
168 180 351 139 
169 255 265 201 
170 246 270 269 
171 106 378 273 
172 7 361 6 
173 35 107 34 
174 85 357 295 
175 38 325 4 
176 145 387 155 
177 174 251 238 
178 117 191 116 
179 250 317 201 
180 137 286 141 
181 222 223 87 
182 36 360 35 
183 195 399 183 
184 130 133 126 
185 30 222 87 
186 6 361 1 
187 226 266 162 
188 181 394 180 
189 119 373 117 
190 175 330 202 
191 353 406 155 
192 214 268 99 
193 327 358 299 
194 139 351 142 
195 117 373 193 
196 268 332 88 
197 324 357 304 
198 141 181 180 
199 319 377 151 
200 168 282 227 
201 12 224 84 
202 181 185 183 
203 336 337 311 
204 34 362 108 
205 256 333 260 
206 250 346 199 
207 91 345 324 
208 311 370 309 
209 155 387 353 
210 86 116 9 
211 224 225 84 
212 294 403 345 
213 334 365 296 
214 95 352 40 
215 199 317 250 
216 47 306 98 
217 86 118 117 
218 331 349 127 
219 40 352 102 
220 106 272 246 
221 99 364 214 
222 198 201 200 
223 113 385 376 
224 120 122 119 
225 10 188 86 
226 278 334 296 
227 242 343 244 
228 261 264 256 
229 291 327 299 
230 173 321 320 
231 172 207 204 
232 102 392 39 
233 210 309 293 
234 175 359 126 
235 158 212 172 
236 101 112 42 
237 220 221 219 
238 33 90 32 
239 40 102 39 
240 4 325 37 
241 193 194 191 
242 142 143 140 
243 8 89 7 
244 149 316 315 
245 96 325 38 
246 90 219 218 
247 10 86 9 
248 287 358 327 
249 141 286 182 
250 213 368 230 
251 238 283 174 
252 90 218 32 
253 173 356 157 
254 223 377 319 
255 322 385 113 
256 214 332 268 
257 114 376 112 
258 42 112 41 
259 238 251 237 
260 309 370 308 
261 224 226 225 
262 112 385 41 
263 182 327 181 
264 187 405 213 
265 145 155 154 
266 147 266 152 
267 295 357 334 
268 84 383 11 
269 164 170 148 
270 176 405 187 
271 122 359 331 
272 275 277 274 
273 202 331 175 
274 12 84 11 
275 345 403 270 
276 169 386 149 
277 220 358 287 
278 284 379 89 
279 179 371 252 
280 9 116 8 
281 314 335 312 
282 8 400 89 
283 92 224 13 
284 202 349 331 
285 31 222 30 
286 273 378 105 
287 227 338 168 
288 201 317 255 
289 116 400 8 
290 230 390 213 
291 218 222 31 
292 92 226 224 
293 192 264 261 
294 130 134 133 
295 279 345 270 
296 259 405 176 
297 118 120 119 
298 37 104 36 
299 95 385 322 
300 98 306 305 
301 125 126 122 
302 162 266 147 
303 217 343 240 
304 89 379 232 
305 227 282 225 
306 154 356 156 
307 173 367 321 
308 95 322 247 
309 13 224 12 
310 88 238 237 
311 279 401 300 
312 155 406 157 
313 14 92 13 
314 321 376 285 
315 43 101 42 
316 237 251 92 
317 101 232 114 
318 88 237 15 
319 138 175 133 
320 176 187 170 
321 329 384 131 
322 251 266 226 
323 14 237 92 
324 170 323 148 
325 196 398 195 
326 142 351 149 
327 156 350 349 
328 32 218 31 
329 157 406 158 
330 252 371 93 
331 90 297 220 
332 192 363 258 
333 223 388 87 
334 280 293 277 
335 87 248 29 
336 152 266 174 
337 354 370 205 
338 174 266 251 
339 326 356 320 
340 90 395 297 
341 134 384 341 
342 30 87 29 
343 28 248 94 
344 15 237 14 
345 265 315 201 
346 29 248 28 
347 149 351 316 
348 28 94 27 
349 198 200 183 
350 273 401 272 
351 93 253 21 
352 16 88 15 
353 21 253 20 
354 236 342 196 
355 22 252 93 
356 100 252 23 
357 24 100 23 
358 221 384 329 
359 22 93 21 
360 23 252 22 
361 18 99 17 
362 319 388 223 
363 252 347 179 
364 92 251 226 
365 33 395 90 
366 220 341 221 
367 287 341 220 
368 225 282 84 
369 326 350 156 
370 94 267 27 
371 37 325 104 
372 165 262 186 
373 167 262 165 
374 179 189 167 
375 178 214 190 
376 166 178 177 
377 166 177 167 
378 194 285 284 
379 177 179 167 
380 16 268 88 
381 349 350 127 
382 178 190 177 
383 166 167 165 
384 99 268 17 
385 165 186 160 
386 189 262 167 
387 152 174 161 
388 120 125 122 
389 372 392 102 
390 126 359 122 
391 96 392 340 
392 161 166 165 
393 168 328 282 
394 193 326 194 
395 27 267 26 
396 106 273 272 
397 166 283 178 
398 215 323 170 
399 205 337 62 
400 104 340 105 
401 128 130 126 
402 20 289 19 
403 26 288 25 
404 324 345 279 
405 155 157 154 
406 17 268 16 
407 161 165 160 
408 290 391 355 
409 174 283 161 
410 185 196 195 
411 335 336 311 
412 218 318 222 
413 376 385 112 
414 283 332 178 
415 207 208 204 
416 62 337 63 
417 152 161 160 
418 43 361 101 
419 299 358 108 
420 86 188 118 
421 310 311 309 
422 272 279 270 
423 161 283 166 
424 207 402 208 
425 194 326 320 
426 88 332 238 
427 136 162 147 
428 83 211 111 
429 96 340 325 
430 245 246 243 
431 109 344 236 
432 152 160 151 
433 209 381 280 
434 138 330 175 
435 134 286 137 
436 210 402 310 
437 194 284 191 
438 274 401 273 
439 244 344 302 
440 160 319 151 
441 238 332 283 
442 253 289 20 
443 213 228 187 
444 234 382 195 
445 147 152 151 
446 146 150 135 
447 35 360 107 
448 312 339 314 
449 285 376 114 
450 125 128 126 
451 213 390 228 
452 289 364 99 
453 267 288 26 
454 147 151 146 
455 195 398 234 
456 249 250 198 
457 194 320 285 
458 100 347 252 
459 68 235 69 
460 82 211 83 
461 73 260 74 
462 158 171 157 
463 136 147 146 
464 25 374 3 
465 3 374 24 
466 19 375 2 
467 2 375 18 
468 302 362 107 
469 221 408 219 
470 158 172 171 
471 80 233 81 
472 164 369 192 
473 320 321 285 
474 208 402 209 
475 256 265 255 
476 76 254 77 
477 288 347 100 
478 132 136 135 
479 132 135 131 
480 128 132 131 
481 136 146 135 
482 341 384 221 
483 128 131 130 
484 355 391 103 
485 190 371 177 
486 201 315 200 
487 329 408 221 
488 273 275 274 
489 127 373 119 
490 134 341 286 
491 219 318 218 
492 46 348 306 
493 228 390 339 
494 186 319 160 
495 75 123 76 
496 286 287 182 
497 280 381 293 
498 150 329 135 
499 156 356 326 
500 328 383 282 
501 72 124 73 
502 240 343 242 
503 217 239 111 
504 143 144 140 
505 143 145 144 
506 148 323 143 
507 264 265 256 
508 108 358 297 
509 325 340 104 
510 120 168 125 
511 108 395 34 
512 261 363 192 
513 232 379 114 
514 67 115 68 
515 79 121 80 
516 297 358 220 
517 209 301 208 
518 71 257 72 
519 217 240 239 
520 97 389 303 
521 236 291 109 
522 211 234 216 
523 236 343 342 
524 299 362 109 
525 178 332 214 
526 70 129 71 
527 188 328 118 
528 186 396 388 
529 159 336 335 
530 74 333 75 
531 287 327 182 
532 34 395 33 
533 334 357 281 
534 246 380 106 
535 107 303 302 
536 140 330 138 
537 145 154 153 
538 343 344 244 
539 300 401 274 
540 64 336 159 
541 388 396 248 
542 246 272 270 
543 69 263 70 
544 151 377 146 
545 58 296 59 
546 153 202 144 
547 269 306 241 
548 275 280 277 
549 172 204 203 
550 247 352 95 
551 197 236 196 
552 190 364 253 
553 179 347 189 
554 159 313 65 
555 192 369 264 
556 77 199 78 
557 293 308 292 
558 320 356 173 
559 66 229 67 
560 145 153 144 
561 154 156 153 
562 64 159 65 
563 78 346 79 
564 143 323 145 
565 124 260 73 
566 366 406 163 
567 131 384 130 
568 54 304 55 
569 300 357 324 
570 206 365 354 
571 123 254 76 
572 111 239 5 
573 292 334 281 
574 113 376 321 
575 128 338 132 
576 56 295 57 
577 59 206 60 
578 135 329 131 
579 284 400 191 
580 301 372 208 
581 81 184 82 
582 81 233 184 
583 172 203 171 
584 72 257 124 
585 204 322 203 
586 118 328 120 
587 65 313 66 
588 123 256 255 
589 281 300 274 
590 115 235 68 
591 159 314 313 
592 188 383 328 
593 292 365 334 
594 144 330 140 
595 289 375 19 
596 280 355 209 
597 288 374 25 
598 229 313 231 
599 171 173 157 
600 87 388 248 
601 51 91 52 
602 67 229 115 
603 120 328 168 
604 310 402 207 
605 75 333 123 
606 235 263 69 
607 47 98 48 
608 260 333 74 
609 55 85 56 
610 121 233 80 
611 208 372 247 
612 214 364 190 
613 205 370 337 
614 123 333 256 
615 208 247 204 
616 121 346 250 
617 340 391 105 
618 253 364 289 
619 24 374 100 
620 18 375 99 
621 121 250 249 
622 83 111 5 
623 168 338 125 
624 187 215 170 
625 125 338 128 
626 129 257 71 
627 177 371 179 
628 52 307 53 
629 281 357 300 
630 248 396 94 
631 53 276 54 
632 316 351 180 
633 286 341 287 
634 141 182 181 
635 169 265 264 
636 211 216 111 
637 233 382 184 
638 129 259 258 
639 228 397 353 
640 50 294 51 
641 66 313 229 
642 94 407 267 
643 79 346 121 
644 61 205 62 
645 191 400 116 
646 77 254 199 
647 308 365 292 
648 366 397 312 
649 48 298 49 
650 129 263 259 
651 293 381 210 
652 89 400 284 
653 49 271 50 
654 44 110 45 
655 315 316 200 
656 305 306 269 
657 57 278 58 
658 70 263 129 
659 210 310 309 
660 247 322 204 
661 262 396 186 
662 100 374 288 
663 99 375 289 
664 277 292 281 
665 262 407 396 
666 202 330 144 
667 44 239 110 
668 241 348 110 
669 396 407 94 
670 101 361 232 
671 158 406 366 
672 124 261 260 
673 123 255 254 
674 60 393 61 
675 193 350 326 
676 267 407 189 
677 169 315 265 
678 254 317 199 
679 277 293 292 
680 306 348 241 
681 189 407 262 
682 129 258 257 
683 156 349 153 
684 180 394 316 
685 146 377 150 
686 323 387 145 
687 209 355 301 
688 5 239 44 
689 229 231 230 
690 199 346 78 
691 282 383 84 
692 153 349 202 
693 63 336 64 
694 45 348 46 
695 197 327 291 
696 354 393 206 
697 229 230 115 
698 331 359 175 
699 186 388 319 
700 339 397 228 
701 264 369 169 
702 243 269 241 
703 235 404 263 
704 234 398 216 
705 236 344 343 
706 184 211 82 
707 290 355 280 
708 197 291 236 
709 285 379 284 
710 198 399 249 
711 114 379 285 
712 228 353 187 
713 216 217 111 
714 150 408 329 
715 59 296 206 
716 275 290 280 
717 121 249 233 
718 185 197 196 
719 239 240 110 
720 381 402 210 
721 297 395 108 
722 130 384 134 
723 108 362 299 
724 255 317 254 
725 205 393 354 
726 382 399 195 
727 302 303 245 
728 303 360 97 
729 159 335 314 
730 206 393 60 
731 105 391 290 
732 61 393 205 
733 110 348 45 
734 313 314 231 
735 312 397 339 
736 203 367 171 
737 163 397 366 
738 219 408 318 
739 55 304 85 
740 350 373 127 
741 187 353 215 
742 291 299 109 
743 200 394 183 
744 171 367 173 
745 85 295 56 
746 301 355 103 
747 91 307 52 
748 240 241 110 
749 98 298 48 
750 107 360 303 
751 257 363 124 
752 276 304 54 
753 278 296 58 
754 247 372 352 
755 316 394 200 
756 51 294 91 
757 244 302 245 
758 303 380 245 
759 318 408 150 
760 184 234 211 
761 244 245 243 
762 53 307 276 
763 184 382 234 
764 245 380 246 
765 212 366 312 
766 342 343 217 
767 57 295 278 
768 63 337 336 
769 115 368 235 
770 263 404 259 
771 271 294 50 
772 49 298 271 
773 231 390 230 
774 353 397 163 
775 193 373 350 
776 242 243 241 
777 258 363 257 
778 354 365 308 
779 106 389 378 
780 339 390 231 
781 296 365 206 
782 216 342 217 
783 294 345 91 
784 215 387 323 
785 242 244 243 
786 216 398 342 
787 307 324 276 
788 124 363 261 
789 304 357 85 
790 314 339 231 
791 369 386 169 
792 98 305 298 
793 270 403 305 
794 240 242 241 
795 249 382 233 
796 295 334 278 
797 230 368 115 
798 352 372 102 
799 213 404 368 
800 272 401 279 
801 249 399 382 
802 164 386 369 
803 209 402 381 
804 404 405 259 
805 213 405 404 
806 380 389 106 
807 368 404 235 
808 298 403 271 
809 303 389 380 
810 342 398 196 
811 378 389 97 
812 305 403 298 
813 97 360 36 
814 103 372 301 
815 181 197 185 
816 273 290 275 
$EndElements
